<svg height="496pt" viewBox="0 0 496 496" width="496pt" xmlns="http://www.w3.org/2000/svg"><path d="m278.953125 289.105469 8.09375 13.804687c8.640625-5.0625 17.167969-10.574218 25.359375-16.375l-9.246094-13.054687c-7.824218 5.527343-15.96875 10.792969-24.207031 15.625zm0 0"/><path d="m346.808594 236.632812c-10.359375 10.359376-21.488282 20.128907-33.054688 29.03125l9.75 12.679688c12.128906-9.320312 23.777344-19.542969 34.625-30.398438 5.992188-5.992187 11.847656-12.289062 17.414063-18.707031l-12.09375-10.476562c-5.320313 6.132812-10.921875 12.140625-16.640625 17.871093zm0 0"/><path d="m472 0-49.359375 9.710938c-74.960937 14.992187-143.152344 51.488281-197.214844 105.554687-21.121093 21.117187-39.53125 44.476563-55.136719 69.6875l-49.160156-15.128906c19.871094-21.664063 30.871094-49.496094 30.871094-79.082031v-10.742188h-10.742188c-31.320312 0-60.769531 12.191406-82.914062 34.34375-27.007812 27.007812-44.863281 62.710938-50.265625 100.519531l-1.503906 10.5625 10.5625-1.503906c17.933593-2.5625 35.359375-8.011719 51.648437-15.824219l59.78125 59.78125-10.183594 21.816406 7.328126 7.328126-20.847657 31.273437c-1.910156-.160156-3.824219-.296875-5.765625-.296875-29.160156 0-55.273437 18.480469-64.984375 45.976562l-34.113281 96.65625v1.367188c0 13.230469 10.769531 24 24 24h1.367188l96.65625-34.113281c27.496093-9.710938 45.976562-35.824219 45.976562-64.984375 0-1.941406-.136719-3.855469-.289062-5.765625l31.273437-20.847657 7.328125 7.328126 16.367188-7.640626 57.230468 57.230469c-7.8125 16.289063-13.261718 33.714844-15.820312 51.648438l-1.503906 10.558593 10.558593-1.503906c37.816407-5.398437 73.511719-23.246094 100.519531-50.261718 22.144532-22.136719 34.335938-51.585938 34.335938-82.90625v-10.742188h-10.742188c-29.585937 0-57.417968 11-79.082031 30.871094l-13.863281-45.070313c27.808594-16.433593 53.429688-36.234375 76.429688-59.226562 54.058593-54.0625 90.554687-122.253907 105.546874-197.214844l9.558594-47.792969.152344-1.566406c0-13.230469-10.769531-24-24-24zm-227.710938 288.398438c-8.394531 8.394531-17.960937 15.144531-28.289062 20.289062l-28.6875-28.6875c5.144531-10.320312 11.894531-19.894531 20.289062-28.289062 17.269532-17.269532 40.046876-27.046876 64.367188-27.679688-.632812 24.320312-10.410156 47.097656-27.679688 64.367188zm-63.433593 7.769531 18.96875 18.96875c-7.601563 2.335937-15.449219 3.933593-23.519531 4.542969.617187-8.054688 2.214843-15.910157 4.550781-23.511719zm-19.429688 13.9375-23.800781-23.800781 25.472656-54.585938c.980469-2.101562 2.054688-4.152344 3.078125-6.238281l22.886719 22.886719c-14.925781 17.703124-24.359375 38.960937-27.636719 61.738281zm-91.769531-184.449219c17.847656-17.847656 41.183594-28.207031 66.199219-29.511719-1.304688 25.015625-11.664063 48.351563-29.511719 66.199219-10.265625 10.265625-21.953125 19.007812-34.535156 26.152344l-28.296875-28.296875c7.136719-12.589844 15.878906-24.277344 26.144531-34.542969zm-43.761719 80.449219c2.289063-10.601563 5.707031-20.929688 10.050781-30.847657l20.789063 20.789063c-9.910156 4.351563-20.238281 7.769531-30.839844 10.058594zm57.648438-5.875c8.640625-5.183594 16.824219-11.117188 24.480469-17.703125l53.914062 16.585937c-4.738281 8.429688-9.226562 17.023438-13.335938 25.839844l-12.832031 27.496094zm4.289062 171.050781c4.070313-11.527344 15.023438-19.28125 27.265625-19.28125 15.933594 0 28.902344 12.96875 28.902344 28.902344 0 12.242187-7.742188 23.195312-19.28125 27.265625l-57.007812 20.121093zm28.863281 75.519531-93.839843 33.121094c-3.503907-.496094-6.28125-3.28125-6.777344-6.777344l33.121094-93.839843c6.167969-17.472657 21.015625-30.058594 38.617187-33.929688-6.753906 5.175781-12.113281 12.199219-15.074218 20.585938l-31.246094 88.542968 88.550781-31.257812c8.386719-2.957032 15.410156-8.316406 20.585937-15.070313-3.871093 17.617188-16.464843 32.457031-33.9375 38.625zm47.417969-72.496093c-6.914062-19.824219-22.601562-35.511719-42.425781-42.425782l15.550781-23.328125 50.203125 50.203125zm21.773438-39.730469c22.777343-3.277344 44.035156-12.710938 61.738281-27.628907l22.886719 22.886719c-2.078125 1.023438-4.136719 2.097657-6.238281 3.078125l-54.585938 25.472656zm106.058593 104.683593 20.789063 20.789063c-9.917969 4.34375-20.246094 7.769531-30.847656 10.050781 2.296875-10.59375 5.714843-20.921875 10.058593-30.839844zm99.910157-79.113281c-1.304688 25.015625-11.664063 48.351563-29.511719 66.199219-10.265625 10.265625-21.953125 19.007812-34.535156 26.152344l-28.296875-28.296875c7.136719-12.582031 15.878906-24.269531 26.152343-34.535157 17.839844-17.855468 41.175782-28.214843 66.191407-29.519531zm-86.382813 27.832031c-6.585937 7.648438-12.511718 15.839844-17.703125 24.480469l-49.671875-49.671875 32.941406-15.378906c6.449219-3.007812 12.753907-6.238281 19-9.582031zm63.953125-128.710937c-24.96875 24.964844-53.179687 45.992187-84 62.847656l-26.289062-26.289062c18.574219-20.410157 28.863281-46.550781 28.863281-74.328125v-13.496094h-13.496094c-27.785156 0-53.929687 10.289062-74.328125 28.871094l-26.289062-26.285156c16.855469-30.824219 37.882812-59.042969 62.847656-84 38.761719-38.761719 85.113281-68.097657 136.089844-86.441407l83.039062 83.039063c-18.34375 50.96875-47.679687 97.3125-86.4375 136.082031zm101.175781-189.050781c-2.441406 12.183594-5.511718 24.167968-9.121093 35.945312l-71.640625-71.640625c11.777344-3.609375 23.761718-6.679687 35.945312-9.121093l46.878906-9.375c3.886719.320312 7 3.425781 7.3125 7.3125zm0 0"/><path d="m352 80c-35.289062 0-64 28.710938-64 64s28.710938 64 64 64 64-28.710938 64-64-28.710938-64-64-64zm0 112c-26.472656 0-48-21.527344-48-48s21.527344-48 48-48 48 21.527344 48 48-21.527344 48-48 48zm0 0"/><path d="m352 112c-17.648438 0-32 14.351562-32 32s14.351562 32 32 32 32-14.351562 32-32-14.351562-32-32-32zm0 48c-8.824219 0-16-7.175781-16-16s7.175781-16 16-16 16 7.175781 16 16-7.175781 16-16 16zm0 0"/></svg>